# xmcd
#
# Track frame offsets:
#	150
#	10729
#	28475
#	48376
#	66829
#	81505
#	115495
#	138571
#	156890
#	172331
#	188616
#	214606
#	235514
#	259763
#	273713
#
# Disc length: 4147 seconds
#
# Revision: 0
# Processed by: cddbd v1.5.1PL0 Copyright (c) Steve Scherf et al.
# Submitted via: dBpowerAMP V4.0
#
DISCID=de10310f
DTITLE=Various Artist - Texas Music History Unplugged 2004
DYEAR=2004
DGENRE=Country
TTITLE0=Ain't Chet Yet - Ray Bensen
TTITLE1=El Talisman - Sisters Morales
TTITLE2=Runaway Soul - Ray BensenRuthie Foster
TTITLE3=Rainbow Inn - Chris Wall
TTITLE4=Alabama Jubilee - Joel Guzman, Jason Roberts, Ray Bensen
TTITLE5=King of my World - Sisters Morales
TTITLE6=Oh Susannah - Ruthie Foster
TTITLE7=Remember the Alamo - Ray Bensen
TTITLE8=I Feel Like Hank Williams Tonight - Chris Wall
TTITLE9=Don't Go There - Ray Bensen
TTITLE10=La Madrugada - Sisters Morales
TTITLE11=Ocean of Tears - Ruthie Foster
TTITLE12=Trashy Women - Chris Wall
TTITLE13=Miles and Miles of Texas - Ray Bensen
TTITLE14=Stayed on Freedom - Ruthie Foster
EXTD=
EXTT0=
EXTT1=
EXTT2=
EXTT3=
EXTT4=
EXTT5=
EXTT6=
EXTT7=
EXTT8=
EXTT9=
EXTT10=
EXTT11=
EXTT12=
EXTT13=
EXTT14=
PLAYORDER=
